<?xml version="1.0" encoding="UTF-8"?>
<svg xmlns="http://www.w3.org/2000/svg" viewBox="0 0 800 500" width="800" height="500">
  <!-- Sky gradient -->
  <defs>
    <linearGradient id="skyGradient" x1="0%" y1="0%" x2="0%" y2="100%">
      <stop offset="0%" style="stop-color:#0a0a2e"/>
      <stop offset="50%" style="stop-color:#1a1a4e"/>
      <stop offset="100%" style="stop-color:#2d1b4e"/>
    </linearGradient>
    <linearGradient id="buildingGradient1" x1="0%" y1="0%" x2="0%" y2="100%">
      <stop offset="0%" style="stop-color:#2a2a3a"/>
      <stop offset="100%" style="stop-color:#1a1a2a"/>
    </linearGradient>
    <linearGradient id="buildingGradient2" x1="0%" y1="0%" x2="0%" y2="100%">
      <stop offset="0%" style="stop-color:#3a3a4a"/>
      <stop offset="100%" style="stop-color:#2a2a3a"/>
    </linearGradient>
    <linearGradient id="buildingGradient3" x1="0%" y1="0%" x2="0%" y2="100%">
      <stop offset="0%" style="stop-color:#252535"/>
      <stop offset="100%" style="stop-color:#151525"/>
    </linearGradient>
  </defs>
  
  <!-- Sky background -->
  <rect width="800" height="500" fill="url(#skyGradient)"/>
  
  <!-- Stars -->
  <circle cx="50" cy="40" r="1.5" fill="#ffffff" opacity="0.8"/>
  <circle cx="120" cy="80" r="1" fill="#ffffff" opacity="0.6"/>
  <circle cx="200" cy="30" r="1.5" fill="#ffffff" opacity="0.9"/>
  <circle cx="280" cy="60" r="1" fill="#ffffff" opacity="0.5"/>
  <circle cx="350" cy="25" r="1.5" fill="#ffffff" opacity="0.7"/>
  <circle cx="420" cy="70" r="1" fill="#ffffff" opacity="0.6"/>
  <circle cx="500" cy="35" r="1.5" fill="#ffffff" opacity="0.8"/>
  <circle cx="580" cy="55" r="1" fill="#ffffff" opacity="0.5"/>
  <circle cx="650" cy="20" r="1.5" fill="#ffffff" opacity="0.9"/>
  <circle cx="720" cy="65" r="1" fill="#ffffff" opacity="0.6"/>
  <circle cx="770" cy="30" r="1" fill="#ffffff" opacity="0.7"/>
  <circle cx="90" cy="100" r="1" fill="#ffffff" opacity="0.4"/>
  <circle cx="450" cy="90" r="1" fill="#ffffff" opacity="0.5"/>
  <circle cx="600" cy="95" r="1" fill="#ffffff" opacity="0.4"/>
  
  <!-- Moon -->
  <circle cx="680" cy="80" r="35" fill="#f5f5dc" opacity="0.9"/>
  <circle cx="695" cy="75" r="30" fill="url(#skyGradient)"/>
  
  <!-- Distant buildings (background layer) -->
  <rect x="0" y="280" width="60" height="220" fill="#1a1a2a"/>
  <rect x="70" y="250" width="50" height="250" fill="#1a1a2a"/>
  <rect x="130" y="300" width="40" height="200" fill="#1a1a2a"/>
  <rect x="180" y="270" width="55" height="230" fill="#1a1a2a"/>
  <rect x="250" y="290" width="45" height="210" fill="#1a1a2a"/>
  <rect x="310" y="260" width="50" height="240" fill="#1a1a2a"/>
  <rect x="380" y="280" width="40" height="220" fill="#1a1a2a"/>
  <rect x="440" y="250" width="60" height="250" fill="#1a1a2a"/>
  <rect x="520" y="300" width="45" height="200" fill="#1a1a2a"/>
  <rect x="580" y="270" width="50" height="230" fill="#1a1a2a"/>
  <rect x="650" y="290" width="55" height="210" fill="#1a1a2a"/>
  <rect x="720" y="260" width="80" height="240" fill="#1a1a2a"/>
  
  <!-- Main buildings (foreground layer) -->
  
  <!-- Building 1 - Tall left -->
  <rect x="20" y="180" width="80" height="320" fill="url(#buildingGradient1)"/>
  <rect x="25" y="170" width="70" height="15" fill="#3a3a4a"/>
  <!-- Antenna -->
  <rect x="57" y="140" width="6" height="30" fill="#4a4a5a"/>
  <circle cx="60" cy="138" r="5" fill="#ff3333"/>
  <!-- Windows -->
  <g fill="#ffdd88" opacity="0.8">
    <rect x="30" y="190" width="12" height="15"/>
    <rect x="50" y="190" width="12" height="15"/>
    <rect x="70" y="190" width="12" height="15"/>
    <rect x="30" y="220" width="12" height="15"/>
    <rect x="50" y="220" width="12" height="15"/>
    <rect x="70" y="220" width="12" height="15"/>
    <rect x="30" y="250" width="12" height="15"/>
    <rect x="50" y="250" width="12" height="15"/>
    <rect x="70" y="250" width="12" height="15"/>
    <rect x="30" y="280" width="12" height="15"/>
    <rect x="50" y="280" width="12" height="15"/>
    <rect x="70" y="280" width="12" height="15"/>
    <rect x="30" y="310" width="12" height="15"/>
    <rect x="50" y="310" width="12" height="15"/>
    <rect x="70" y="310" width="12" height="15"/>
    <rect x="30" y="340" width="12" height="15"/>
    <rect x="50" y="340" width="12" height="15"/>
    <rect x="70" y="340" width="12" height="15"/>
    <rect x="30" y="370" width="12" height="15"/>
    <rect x="50" y="370" width="12" height="15"/>
    <rect x="70" y="370" width="12" height="15"/>
    <rect x="30" y="400" width="12" height="15"/>
    <rect x="50" y="400" width="12" height="15"/>
    <rect x="70" y="400" width="12" height="15"/>
    <rect x="30" y="430" width="12" height="15"/>
    <rect x="50" y="430" width="12" height="15"/>
    <rect x="70" y="430" width="12" height="15"/>
    <rect x="30" y="460" width="12" height="15"/>
    <rect x="50" y="460" width="12" height="15"/>
    <rect x="70" y="460" width="12" height="15"/>
  </g>
  
  <!-- Building 2 - Medium -->
  <rect x="110" y="250" width="70" height="250" fill="url(#buildingGradient2)"/>
  <g fill="#aaddff" opacity="0.7">
    <rect x="120" y="260" width="10" height="12"/>
    <rect x="140" y="260" width="10" height="12"/>
    <rect x="160" y="260" width="10" height="12"/>
    <rect x="120" y="285" width="10" height="12"/>
    <rect x="140" y="285" width="10" height="12"/>
    <rect x="160" y="285" width="10" height="12"/>
    <rect x="120" y="310" width="10" height="12"/>
    <rect x="140" y="310" width="10" height="12"/>
    <rect x="160" y="310" width="10" height="12"/>
    <rect x="120" y="335" width="10" height="12"/>
    <rect x="140" y="335" width="10" height="12"/>
    <rect x="160" y="335" width="10" height="12"/>
    <rect x="120" y="360" width="10" height="12"/>
    <rect x="140" y="360" width="10" height="12"/>
    <rect x="160" y="360" width="10" height="12"/>
    <rect x="120" y="385" width="10" height="12"/>
    <rect x="140" y="385" width="10" height="12"/>
    <rect x="160" y="385" width="10" height="12"/>
    <rect x="120" y="410" width="10" height="12"/>
    <rect x="140" y="410" width="10" height="12"/>
    <rect x="160" y="410" width="10" height="12"/>
    <rect x="120" y="435" width="10" height="12"/>
    <rect x="140" y="435" width="10" height="12"/>
    <rect x="160" y="435" width="10" height="12"/>
    <rect x="120" y="460" width="10" height="12"/>
    <rect x="140" y="460" width="10" height="12"/>
    <rect x="160" y="460" width="10" height="12"/>
  </g>
  
  <!-- Building 3 - Skyscraper -->
  <rect x="190" y="120" width="90" height="380" fill="url(#buildingGradient1)"/>
  <polygon points="235,120 190,120 190,100 235,80 280,100 280,120" fill="#3a3a4a"/>
  <rect x="232" y="60" width="6" height="40" fill="#4a4a5a"/>
  <circle cx="235" cy="58" r="4" fill="#ff3333"/>
  <g fill="#ffdd88" opacity="0.85">
    <rect x="200" y="130" width="15" height="18"/>
    <rect x="225" y="130" width="15" height="18"/>
    <rect x="255" y="130" width="15" height="18"/>
    <rect x="200" y="160" width="15" height="18"/>
    <rect x="225" y="160" width="15" height="18"/>
    <rect x="255" y="160" width="15" height="18"/>
    <rect x="200" y="190" width="15" height="18"/>
    <rect x="225" y="190" width="15" height="18"/>
    <rect x="255" y="190" width="15" height="18"/>
    <rect x="200" y="220" width="15" height="18"/>
    <rect x="225" y="220" width="15" height="18"/>
    <rect x="255" y="220" width="15" height="18"/>
    <rect x="200" y="250" width="15" height="18"/>
    <rect x="225" y="250" width="15" height="18"/>
    <rect x="255" y="250" width="15" height="18"/>
    <rect x="200" y="280" width="15" height="18"/>
    <rect x="225" y="280" width="15" height="18"/>
    <rect x="255" y="280" width="15" height="18"/>
    <rect x="200" y="310" width="15" height="18"/>
    <rect x="225" y="310" width="15" height="18"/>
    <rect x="255" y="310" width="15" height="18"/>
    <rect x="200" y="340" width="15" height="18"/>
    <rect x="225" y="340" width="15" height="18"/>
    <rect x="255" y="340" width="15" height="18"/>
    <rect x="200" y="370" width="15" height="18"/>
    <rect x="225" y="370" width="15" height="18"/>
    <rect x="255" y="370" width="15" height="18"/>
    <rect x="200" y="400" width="15" height="18"/>
    <rect x="225" y="400" width="15" height="18"/>
    <rect x="255" y="400" width="15" height="18"/>
    <rect x="200" y="430" width="15" height="18"/>
    <rect x="225" y="430" width="15" height="18"/>
    <rect x="255" y="430" width="15" height="18"/>
    <rect x="200" y="460" width="15" height="18"/>
    <rect x="225" y="460" width="15" height="18"/>
    <rect x="255" y="460" width="15" height="18"/>
  </g>
  
  <!-- Building 4 - Wide building -->
  <rect x="295" y="300" width="100" height="200" fill="url(#buildingGradient3)"/>
  <g fill="#88ccff" opacity="0.6">
    <rect x="305" y="310" width="12" height="14"/>
    <rect x="325" y="310" width="12" height="14"/>
    <rect x="345" y="310" width="12" height="14"/>
    <rect x="365" y="310" width="12" height="14"/>
    <rect x="305" y="340" width="12" height="14"/>
    <rect x="325" y="340" width="12" height="14"/>
    <rect x="345" y="340" width="12" height="14"/>
    <rect x="365" y="340" width="12" height="14"/>
    <rect x="305" y="370" width="12" height="14"/>
    <rect x="325" y="370" width="12" height="14"/>
    <rect x="345" y="370" width="12" height="14"/>
    <rect x="365" y="370" width="12" height="14"/>
    <rect x="305" y="400" width="12" height="14"/>
    <rect x="325" y="400" width="12" height="14"/>
    <rect x="345" y="400" width="12" height="14"/>
    <rect x="365" y="400" width="12" height="14"/>
    <rect x="305" y="430" width="12" height="14"/>
    <rect x="325" y="430" width="12" height="14"/>
    <rect x="345" y="430" width="12" height="14"/>
    <rect x="365" y="430" width="12" height="14"/>
    <rect x="305" y="460" width="12" height="14"/>
    <rect x="325" y="460" width="12" height="14"/>
    <rect x="345" y="460" width="12" height="14"/>
    <rect x="365" y="460" width="12" height="14"/>
  </g>
  
  <!-- Building 5 - Tall center -->
  <rect x="410" y="160" width="75" height="340" fill="url(#buildingGradient2)"/>
  <rect x="420" y="150" width="55" height="15" fill="#4a4a5a"/>
  <rect x="443" y="120" width="8" height="30" fill="#5a5a6a"/>
  <circle cx="447" cy="118" r="4" fill="#ff3333"/>
  <g fill="#ffdd88" opacity="0.8">
    <rect x="420" y="170" width="12" height="16"/>
    <rect x="442" y="170" width="12" height="16"/>
    <rect x="464" y="170" width="12" height="16"/>
    <rect x="420" y="200" width="12" height="16"/>
    <rect x="442" y="200" width="12" height="16"/>
    <rect x="464" y="200" width="12" height="16"/>
    <rect x="420" y="230" width="12" height="16"/>
    <rect x="442" y="230" width="12" height="16"/>
    <rect x="464" y="230" width="12" height="16"/>
    <rect x="420" y="260" width="12" height="16"/>
    <rect x="442" y="260" width="12" height="16"/>
    <rect x="464" y="260" width="12" height="16"/>
    <rect x="420" y="290" width="12" height="16"/>
    <rect x="442" y="290" width="12" height="16"/>
    <rect x="464" y="290" width="12" height="16"/>
    <rect x="420" y="320" width="12" height="16"/>
    <rect x="442" y="320" width="12" height="16"/>
    <rect x="464" y="320" width="12" height="16"/>
    <rect x="420" y="350" width="12" height="16"/>
    <rect x="442" y="350" width="12" height="16"/>
    <rect x="464" y="350" width="12" height="16"/>
    <rect x="420" y="380" width="12" height="16"/>
    <rect x="442" y="380" width="12" height="16"/>
    <rect x="464" y="380" width="12" height="16"/>
    <rect x="420" y="410" width="12" height="16"/>
    <rect x="442" y="410" width="12" height="16"/>
    <rect x="464" y="410" width="12" height="16"/>
    <rect x="420" y="440" width="12" height="16"/>
    <rect x="442" y="440" width="12" height="16"/>
    <rect x="464" y="440" width="12" height="16"/>
    <rect x="420" y="470" width="12" height="16"/>
    <rect x="442" y="470" width="12" height="16"/>
    <rect x="464" y="470" width="12" height="16"/>
  </g>
  
  <!-- Building 6 - Medium right -->
  <rect x="500" y="220" width="65" height="280" fill="url(#buildingGradient1)"/>
  <g fill="#aaddff" opacity="0.7">
    <rect x="510" y="230" width="11" height="14"/>
    <rect x="530" y="230" width="11" height="14"/>
    <rect x="550" y="230" width="11" height="14"/>
    <rect x="510" y="260" width="11" height="14"/>
    <rect x="530" y="260" width="11" height="14"/>
    <rect x="550" y="260" width="11" height="14"/>
    <rect x="510" y="290" width="11" height="14"/>
    <rect x="530" y="290" width="11" height="14"/>
    <rect x="550" y="290" width="11" height="14"/>
    <rect x="510" y="320" width="11" height="14"/>
    <rect x="530" y="320" width="11" height="14"/>
    <rect x="550" y="320" width="11" height="14"/>
    <rect x="510" y="350" width="11" height="14"/>
    <rect x="530" y="350" width="11" height="14"/>
    <rect x="550" y="350" width="11" height="14"/>
    <rect x="510" y="380" width="11" height="14"/>
    <rect x="530" y="380" width="11" height="14"/>
    <rect x="550" y="380" width="11" height="14"/>
    <rect x="510" y="410" width="11" height="14"/>
    <rect x="530" y="410" width="11" height="14"/>
    <rect x="550" y="410" width="11" height="14"/>
    <rect x="510" y="440" width="11" height="14"/>
    <rect x="530" y="440" width="11" height="14"/>
    <rect x="550" y="440" width="11" height="14"/>
    <rect x="510" y="470" width="11" height="14"/>
    <rect x="530" y="470" width="11" height="14"/>
    <rect x="550" y="470" width="11" height="14"/>
  </g>
  
  <!-- Building 7 - Tallest skyscraper -->
  <rect x="580" y="100" width="85" height="400" fill="url(#buildingGradient3)"/>
  <polygon points="622,100 580,100 580,85 622,65 665,85 665,100" fill="#2a2a3a"/>
  <rect x="618" y="40" width="8" height="45" fill="#3a3a4a"/>
  <circle cx="622" cy="38" r="5" fill="#ff3333"/>
  <g fill="#ffdd88" opacity="0.85">
    <rect x="590" y="110" width="14" height="18"/>
    <rect x="615" y="110" width="14" height="18"/>
    <rect x="640" y="110" width="14" height="18"/>
    <rect x="590" y="140" width="14" height="18"/>
    <rect x="615" y="140" width="14" height="18"/>
    <rect x="640" y="140" width="14" height="18"/>
    <rect x="590" y="170" width="14" height="18"/>
    <rect x="615" y="170" width="14" height="18"/>
    <rect x="640" y="170" width="14" height="18"/>
    <rect x="590" y="200" width="14" height="18"/>
    <rect x="615" y="200" width="14" height="18"/>
    <rect x="640" y="200" width="14" height="18"/>
    <rect x="590" y="230" width="14" height="18"/>
    <rect x="615" y="230" width="14" height="18"/>
    <rect x="640" y="230" width="14" height="18"/>
    <rect x="590" y="260" width="14" height="18"/>
    <rect x="615" y="260" width="14" height="18"/>
    <rect x="640" y="260" width="14" height="18"/>
    <rect x="590" y="290" width="14" height="18"/>
    <rect x="615" y="290" width="14" height="18"/>
    <rect x="640" y="290" width="14" height="18"/>
    <rect x="590" y="320" width="14" height="18"/>
    <rect x="615" y="320" width="14" height="18"/>
    <rect x="640" y="320" width="14" height="18"/>
    <rect x="590" y="350" width="14" height="18"/>
    <rect x="615" y="350" width="14" height="18"/>
    <rect x="640" y="350" width="14" height="18"/>
    <rect x="590" y="380" width="14" height="18"/>
    <rect x="615" y="380" width="14" height="18"/>
    <rect x="640" y="380" width="14" height="18"/>
    <rect x="590" y="410" width="14" height="18"/>
    <rect x="615" y="410" width="14" height="18"/>
    <rect x="640" y="410" width="14" height="18"/>
    <rect x="590" y="440" width="14" height="18"/>
    <rect x="615" y="440" width="14" height="18"/>
    <rect x="640" y="440" width="14" height="18"/>
    <rect x="590" y="470" width="14" height="18"/>
    <rect x="615" y="470" width="14" height="18"/>
    <rect x="640" y="470" width="14" height="18"/>
  </g>
  
  <!-- Building 8 - Rightmost -->
  <rect x="680" y="200" width="120" height="300" fill="url(#buildingGradient2)"/>
  <g fill="#88ccff" opacity="0.65">
    <rect x="690" y="210" width="13" height="16"/>
    <rect x="715" y="210" width="13" height="16"/>
    <rect x="740" y="210" width="13" height="16"/>
    <rect x="765" y="210" width="13" height="16"/>
    <rect x="690" y="240" width="13" height="16"/>
    <rect x="715" y="240" width="13" height="16"/>
    <rect x="740" y="240" width="13" height="16"/>
    <rect x="765" y="240" width="13" height="16"/>
    <rect x="690" y="270" width="13" height="16"/>
    <rect x="715" y="270" width="13" height="16"/>
    <rect x="740" y="270" width="13" height="16"/>
    <rect x="765" y="270" width="13" height="16"/>
    <rect x="690" y="300" width="13" height="16"/>
    <rect x="715" y="300" width="13" height="16"/>
    <rect x="740" y="300" width="13" height="16"/>
    <rect x="765" y="300" width="13" height="16"/>
    <rect x="690" y="330" width="13" height="16"/>
    <rect x="715" y="330" width="13" height="16"/>
    <rect x="740" y="330" width="13" height="16"/>
    <rect x="765" y="330" width="13" height="16"/>
    <rect x="690" y="360" width="13" height="16"/>
    <rect x="715" y="360" width="13" height="16"/>
    <rect x="740" y="360" width="13" height="16"/>
    <rect x="765" y="360" width="13" height="16"/>
    <rect x="690" y="390" width="13" height="16"/>
    <rect x="715" y="390" width="13" height="16"/>
    <rect x="740" y="390" width="13" height="16"/>
    <rect x="765" y="390" width="13" height="16"/>
    <rect x="690" y="420" width="13" height="16"/>
    <rect x="715" y="420" width="13" height="16"/>
    <rect x="740" y="420" width="13" height="16"/>
    <rect x="765" y="420" width="13" height="16"/>
    <rect x="690" y="450" width="13" height="16"/>
    <rect x="715" y="450" width="13" height="16"/>
    <rect x="740" y="450" width="13" height="16"/>
    <rect x="765" y="450" width="13" height="16"/>
    <rect x="690" y="480" width="13" height="16"/>
    <rect x="715" y="480" width="13" height="16"/>
    <rect x="740" y="480" width="13" height="16"/>
    <rect x="765" y="480" width="13" height="16"/>
  </g>
  
  <!-- Street/Ground -->
  <rect x="0" y="495" width="800" height="5" fill="#1a1a1a"/>
  
  <!-- Street lights -->
  <rect x="50" y="450" width="3" height="45" fill="#4a4a4a"/>
  <circle cx="51" cy="448" r="6" fill="#ffff99" opacity="0.9"/>
  
  <rect x="350" y="450" width="3" height="45" fill="#4a4a4a"/>
  <circle cx="351" cy="448" r="6" fill="#ffff99" opacity="0.9"/>
  
  <rect x="550" y="450" width="3" height="45" fill="#4a4a4a"/>
  <circle cx="551" cy="448" r="6" fill="#ffff99" opacity="0.9"/>
  
  <rect x="750" y="450" width="3" height="45" fill="#4a4a4a"/>
  <circle cx="751" cy="448" r="6" fill="#ffff99" opacity="0.9"/>
</svg>
