<svg xmlns="http://www.w3.org/2000/svg" viewBox="0 0 800 500" width="800" height="500">
  <!-- Sky gradient -->
  <defs>
    <linearGradient id="sky" x1="0%" y1="0%" x2="0%" y2="100%">
      <stop offset="0%" style="stop-color:#1a0533"/>
      <stop offset="40%" style="stop-color:#2d1b69"/>
      <stop offset="70%" style="stop-color:#e85d04"/>
      <stop offset="90%" style="stop-color:#ffba08"/>
      <stop offset="100%" style="stop-color:#ffd60a"/>
    </linearGradient>
    <linearGradient id="building-dark" x1="0%" y1="0%" x2="100%" y2="0%">
      <stop offset="0%" style="stop-color:#1a1a2e"/>
      <stop offset="100%" style="stop-color:#16213e"/>
    </linearGradient>
  </defs>

  <!-- Sky background -->
  <rect width="800" height="500" fill="url(#sky)"/>

  <!-- Stars -->
  <circle cx="100" cy="40" r="1" fill="white" opacity="0.8"/>
  <circle cx="200" cy="60" r="1.5" fill="white" opacity="0.6"/>
  <circle cx="350" cy="30" r="1" fill="white" opacity="0.9"/>
  <circle cx="500" cy="50" r="1.2" fill="white" opacity="0.7"/>
  <circle cx="650" cy="25" r="1" fill="white" opacity="0.8"/>
  <circle cx="720" cy="70" r="1.5" fill="white" opacity="0.5"/>
  <circle cx="50" cy="80" r="1" fill="white" opacity="0.6"/>
  <circle cx="450" cy="15" r="1.3" fill="white" opacity="0.7"/>

  <!-- Moon -->
  <circle cx="680" cy="80" r="25" fill="#fefae0" opacity="0.9"/>
  <circle cx="690" cy="75" r="22" fill="url(#sky)" opacity="0.7"/>

  <!-- Far background buildings -->
  <rect x="0" y="280" width="50" height="220" fill="#2d2d44" opacity="0.6"/>
  <rect x="55" y="300" width="40" height="200" fill="#2d2d44" opacity="0.6"/>
  <rect x="120" y="260" width="60" height="240" fill="#2d2d44" opacity="0.6"/>
  <rect x="200" y="290" width="45" height="210" fill="#2d2d44" opacity="0.6"/>
  <rect x="280" y="270" width="55" height="230" fill="#2d2d44" opacity="0.6"/>
  <rect x="370" y="250" width="40" height="250" fill="#2d2d44" opacity="0.6"/>
  <rect x="500" y="280" width="50" height="220" fill="#2d2d44" opacity="0.6"/>
  <rect x="600" y="260" width="45" height="240" fill="#2d2d44" opacity="0.6"/>
  <rect x="700" y="290" width="55" height="210" fill="#2d2d44" opacity="0.6"/>
  <rect x="760" y="270" width="40" height="230" fill="#2d2d44" opacity="0.6"/>

  <!-- Main buildings -->
  <!-- Tall skyscraper left -->
  <rect x="30" y="150" width="60" height="350" fill="#0f0f23"/>
  <rect x="33" y="153" width="54" height="347" fill="#1a1a2e"/>
  <!-- Windows -->
  <rect x="38" y="160" width="8" height="10" fill="#ffba08" opacity="0.8"/>
  <rect x="50" y="160" width="8" height="10" fill="#ffba08" opacity="0.4"/>
  <rect x="62" y="160" width="8" height="10" fill="#ffba08" opacity="0.9"/>
  <rect x="74" y="160" width="8" height="10" fill="#ffba08" opacity="0.3"/>
  <rect x="38" y="180" width="8" height="10" fill="#ffba08" opacity="0.6"/>
  <rect x="50" y="180" width="8" height="10" fill="#ffba08" opacity="0.9"/>
  <rect x="62" y="180" width="8" height="10" fill="#ffba08" opacity="0.2"/>
  <rect x="74" y="180" width="8" height="10" fill="#ffba08" opacity="0.7"/>
  <rect x="38" y="200" width="8" height="10" fill="#ffba08" opacity="0.5"/>
  <rect x="50" y="200" width="8" height="10" fill="#ffba08" opacity="0.8"/>
  <rect x="62" y="200" width="8" height="10" fill="#ffba08" opacity="0.9"/>
  <rect x="74" y="200" width="8" height="10" fill="#ffba08" opacity="0.4"/>
  <rect x="38" y="220" width="8" height="10" fill="#ffba08" opacity="0.7"/>
  <rect x="50" y="220" width="8" height="10" fill="#ffba08" opacity="0.3"/>
  <rect x="62" y="220" width="8" height="10" fill="#ffba08" opacity="0.8"/>
  <rect x="74" y="220" width="8" height="10" fill="#ffba08" opacity="0.6"/>
  <rect x="38" y="240" width="8" height="10" fill="#ffba08" opacity="0.9"/>
  <rect x="50" y="240" width="8" height="10" fill="#ffba08" opacity="0.5"/>
  <rect x="62" y="240" width="8" height="10" fill="#ffba08" opacity="0.4"/>
  <rect x="74" y="240" width="8" height="10" fill="#ffba08" opacity="0.8"/>
  <!-- Antenna -->
  <rect x="57" y="130" width="4" height="20" fill="#1a1a2e"/>
  <circle cx="59" cy="128" r="3" fill="#ff0000" opacity="0.8"/>

  <!-- Wide building -->
  <rect x="100" y="250" width="90" height="250" fill="#0f0f23"/>
  <rect x="103" y="253" width="84" height="247" fill="#16213e"/>
  <!-- Windows grid -->
  <rect x="108" y="260" width="10" height="12" fill="#ffba08" opacity="0.7"/>
  <rect x="123" y="260" width="10" height="12" fill="#ffba08" opacity="0.9"/>
  <rect x="138" y="260" width="10" height="12" fill="#ffba08" opacity="0.3"/>
  <rect x="153" y="260" width="10" height="12" fill="#ffba08" opacity="0.8"/>
  <rect x="168" y="260" width="10" height="12" fill="#ffba08" opacity="0.5"/>
  <rect x="108" y="280" width="10" height="12" fill="#ffba08" opacity="0.4"/>
  <rect x="123" y="280" width="10" height="12" fill="#ffba08" opacity="0.8"/>
  <rect x="138" y="280" width="10" height="12" fill="#ffba08" opacity="0.9"/>
  <rect x="153" y="280" width="10" height="12" fill="#ffba08" opacity="0.6"/>
  <rect x="168" y="280" width="10" height="12" fill="#ffba08" opacity="0.7"/>
  <rect x="108" y="300" width="10" height="12" fill="#ffba08" opacity="0.9"/>
  <rect x="123" y="300" width="10" height="12" fill="#ffba08" opacity="0.5"/>
  <rect x="138" y="300" width="10" height="12" fill="#ffba08" opacity="0.7"/>
  <rect x="153" y="300" width="10" height="12" fill="#ffba08" opacity="0.3"/>
  <rect x="168" y="300" width="10" height="12" fill="#ffba08" opacity="0.8"/>
  <rect x="108" y="320" width="10" height="12" fill="#ffba08" opacity="0.6"/>
  <rect x="123" y="320" width="10" height="12" fill="#ffba08" opacity="0.4"/>
  <rect x="138" y="320" width="10" height="12" fill="#ffba08" opacity="0.8"/>
  <rect x="153" y="320" width="10" height="12" fill="#ffba08" opacity="0.9"/>
  <rect x="168" y="320" width="10" height="12" fill="#ffba08" opacity="0.5"/>

  <!-- Central tall tower -->
  <rect x="220" y="120" width="50" height="380" fill="#0f0f23"/>
  <rect x="223" y="123" width="44" height="377" fill="#1a1a2e"/>
  <!-- Spire -->
  <polygon points="245,60 240,120 250,120" fill="#1a1a2e"/>
  <circle cx="245" cy="58" r="3" fill="#ff0000" opacity="0.9"/>
  <!-- Windows -->
  <rect x="228" y="135" width="7" height="9" fill="#87ceeb" opacity="0.8"/>
  <rect x="239" y="135" width="7" height="9" fill="#87ceeb" opacity="0.5"/>
  <rect x="250" y="135" width="7" height="9" fill="#87ceeb" opacity="0.9"/>
  <rect x="228" y="152" width="7" height="9" fill="#87ceeb" opacity="0.6"/>
  <rect x="239" y="152" width="7" height="9" fill="#87ceeb" opacity="0.9"/>
  <rect x="250" y="152" width="7" height="9" fill="#87ceeb" opacity="0.4"/>
  <rect x="228" y="169" width="7" height="9" fill="#87ceeb" opacity="0.9"/>
  <rect x="239" y="169" width="7" height="9" fill="#87ceeb" opacity="0.7"/>
  <rect x="250" y="169" width="7" height="9" fill="#87ceeb" opacity="0.8"/>
  <rect x="228" y="186" width="7" height="9" fill="#ffba08" opacity="0.5"/>
  <rect x="239" y="186" width="7" height="9" fill="#ffba08" opacity="0.8"/>
  <rect x="250" y="186" width="7" height="9" fill="#ffba08" opacity="0.6"/>
  <rect x="228" y="203" width="7" height="9" fill="#ffba08" opacity="0.7"/>
  <rect x="239" y="203" width="7" height="9" fill="#ffba08" opacity="0.4"/>
  <rect x="250" y="203" width="7" height="9" fill="#ffba08" opacity="0.9"/>

  <!-- Medium building -->
  <rect x="290" y="220" width="70" height="280" fill="#0f0f23"/>
  <rect x="293" y="223" width="64" height="277" fill="#16213e"/>
  <rect x="298" y="230" width="9" height="11" fill="#ffba08" opacity="0.8"/>
  <rect x="312" y="230" width="9" height="11" fill="#ffba08" opacity="0.5"/>
  <rect x="326" y="230" width="9" height="11" fill="#ffba08" opacity="0.9"/>
  <rect x="340" y="230" width="9" height="11" fill="#ffba08" opacity="0.6"/>
  <rect x="298" y="248" width="9" height="11" fill="#ffba08" opacity="0.4"/>
  <rect x="312" y="248" width="9" height="11" fill="#ffba08" opacity="0.9"/>
  <rect x="326" y="248" width="9" height="11" fill="#ffba08" opacity="0.7"/>
  <rect x="340" y="248" width="9" height="11" fill="#ffba08" opacity="0.8"/>
  <rect x="298" y="266" width="9" height="11" fill="#ffba08" opacity="0.9"/>
  <rect x="312" y="266" width="9" height="11" fill="#ffba08" opacity="0.3"/>
  <rect x="326" y="266" width="9" height="11" fill="#ffba08" opacity="0.6"/>
  <rect x="340" y="266" width="9" height="11" fill="#ffba08" opacity="0.8"/>

  <!-- Stepped building -->
  <rect x="380" y="280" width="80" height="220" fill="#0f0f23"/>
  <rect x="390" y="240" width="60" height="260" fill="#1a1a2e"/>
  <rect x="400" y="200" width="40" height="300" fill="#16213e"/>
  <!-- Windows -->
  <rect x="405" y="210" width="6" height="8" fill="#ffba08" opacity="0.7"/>
  <rect x="415" y="210" width="6" height="8" fill="#ffba08" opacity="0.9"/>
  <rect x="425" y="210" width="6" height="8" fill="#ffba08" opacity="0.4"/>
  <rect x="405" y="225" width="6" height="8" fill="#ffba08" opacity="0.8"/>
  <rect x="415" y="225" width="6" height="8" fill="#ffba08" opacity="0.5"/>
  <rect x="425" y="225" width="6" height="8" fill="#ffba08" opacity="0.9"/>
  <rect x="395" y="250" width="6" height="8" fill="#ffba08" opacity="0.6"/>
  <rect x="405" y="250" width="6" height="8" fill="#ffba08" opacity="0.3"/>
  <rect x="415" y="250" width="6" height="8" fill="#ffba08" opacity="0.8"/>
  <rect x="425" y="250" width="6" height="8" fill="#ffba08" opacity="0.7"/>
  <rect x="435" y="250" width="6" height="8" fill="#ffba08" opacity="0.9"/>
  <rect x="445" y="250" width="6" height="8" fill="#ffba08" opacity="0.4"/>

  <!-- Right side tall building -->
  <rect x="490" y="160" width="55" height="340" fill="#0f0f23"/>
  <rect x="493" y="163" width="49" height="337" fill="#1a1a2e"/>
  <!-- Antenna -->
  <rect x="515" y="140" width="3" height="20" fill="#1a1a2e"/>
  <!-- Windows -->
  <rect x="498" y="170" width="8" height="10" fill="#87ceeb" opacity="0.9"/>
  <rect x="510" y="170" width="8" height="10" fill="#87ceeb" opacity="0.6"/>
  <rect x="522" y="170" width="8" height="10" fill="#87ceeb" opacity="0.8"/>
  <rect x="534" y="170" width="8" height="10" fill="#87ceeb" opacity="0.4"/>
  <rect x="498" y="188" width="8" height="10" fill="#87ceeb" opacity="0.5"/>
  <rect x="510" y="188" width="8" height="10" fill="#87ceeb" opacity="0.9"/>
  <rect x="522" y="188" width="8" height="10" fill="#87ceeb" opacity="0.7"/>
  <rect x="534" y="188" width="8" height="10" fill="#87ceeb" opacity="0.8"/>
  <rect x="498" y="206" width="8" height="10" fill="#ffba08" opacity="0.8"/>
  <rect x="510" y="206" width="8" height="10" fill="#ffba08" opacity="0.4"/>
  <rect x="522" y="206" width="8" height="10" fill="#ffba08" opacity="0.9"/>
  <rect x="534" y="206" width="8" height="10" fill="#ffba08" opacity="0.6"/>
  <rect x="498" y="224" width="8" height="10" fill="#ffba08" opacity="0.7"/>
  <rect x="510" y="224" width="8" height="10" fill="#ffba08" opacity="0.8"/>
  <rect x="522" y="224" width="8" height="10" fill="#ffba08" opacity="0.3"/>
  <rect x="534" y="224" width="8" height="10" fill="#ffba08" opacity="0.9"/>

  <!-- Wide right building -->
  <rect x="560" y="270" width="85" height="230" fill="#0f0f23"/>
  <rect x="563" y="273" width="79" height="227" fill="#16213e"/>
  <rect x="568" y="280" width="10" height="12" fill="#ffba08" opacity="0.8"/>
  <rect x="583" y="280" width="10" height="12" fill="#ffba08" opacity="0.5"/>
  <rect x="598" y="280" width="10" height="12" fill="#ffba08" opacity="0.9"/>
  <rect x="613" y="280" width="10" height="12" fill="#ffba08" opacity="0.6"/>
  <rect x="628" y="280" width="10" height="12" fill="#ffba08" opacity="0.7"/>
  <rect x="568" y="300" width="10" height="12" fill="#ffba08" opacity="0.4"/>
  <rect x="583" y="300" width="10" height="12" fill="#ffba08" opacity="0.9"/>
  <rect x="598" y="300" width="10" height="12" fill="#ffba08" opacity="0.7"/>
  <rect x="613" y="300" width="10" height="12" fill="#ffba08" opacity="0.8"/>
  <rect x="628" y="300" width="10" height="12" fill="#ffba08" opacity="0.3"/>
  <rect x="568" y="320" width="10" height="12" fill="#ffba08" opacity="0.9"/>
  <rect x="583" y="320" width="10" height="12" fill="#ffba08" opacity="0.6"/>
  <rect x="598" y="320" width="10" height="12" fill="#ffba08" opacity="0.4"/>
  <rect x="613" y="320" width="10" height="12" fill="#ffba08" opacity="0.9"/>
  <rect x="628" y="320" width="10" height="12" fill="#ffba08" opacity="0.8"/>

  <!-- Far right building -->
  <rect x="670" y="200" width="55" height="300" fill="#0f0f23"/>
  <rect x="673" y="203" width="49" height="297" fill="#1a1a2e"/>
  <rect x="678" y="210" width="7" height="9" fill="#ffba08" opacity="0.7"/>
  <rect x="689" y="210" width="7" height="9" fill="#ffba08" opacity="0.9"/>
  <rect x="700" y="210" width="7" height="9" fill="#ffba08" opacity="0.5"/>
  <rect x="711" y="210" width="7" height="9" fill="#ffba08" opacity="0.8"/>
  <rect x="678" y="226" width="7" height="9" fill="#ffba08" opacity="0.6"/>
  <rect x="689" y="226" width="7" height="9" fill="#ffba08" opacity="0.4"/>
  <rect x="700" y="226" width="7" height="9" fill="#ffba08" opacity="0.9"/>
  <rect x="711" y="226" width="7" height="9" fill="#ffba08" opacity="0.7"/>
  <rect x="678" y="242" width="7" height="9" fill="#ffba08" opacity="0.8"/>
  <rect x="689" y="242" width="7" height="9" fill="#ffba08" opacity="0.6"/>
  <rect x="700" y="242" width="7" height="9" fill="#ffba08" opacity="0.3"/>
  <rect x="711" y="242" width="7" height="9" fill="#ffba08" opacity="0.9"/>

  <!-- Rightmost building -->
  <rect x="740" y="290" width="60" height="210" fill="#0f0f23"/>
  <rect x="743" y="293" width="54" height="207" fill="#16213e"/>
  <rect x="748" y="300" width="8" height="10" fill="#ffba08" opacity="0.9"/>
  <rect x="760" y="300" width="8" height="10" fill="#ffba08" opacity="0.5"/>
  <rect x="772" y="300" width="8" height="10" fill="#ffba08" opacity="0.7"/>
  <rect x="784" y="300" width="8" height="10" fill="#ffba08" opacity="0.8"/>
  <rect x="748" y="318" width="8" height="10" fill="#ffba08" opacity="0.4"/>
  <rect x="760" y="318" width="8" height="10" fill="#ffba08" opacity="0.8"/>
  <rect x="772" y="318" width="8" height="10" fill="#ffba08" opacity="0.9"/>
  <rect x="784" y="318" width="8" height="10" fill="#ffba08" opacity="0.6"/>

  <!-- Ground/street -->
  <rect x="0" y="490" width="800" height="10" fill="#0a0a0a"/>

  <!-- Street lights -->
  <rect x="150" y="450" width="3" height="40" fill="#333"/>
  <circle cx="151" cy="448" r="5" fill="#ffba08" opacity="0.6"/>
  <ellipse cx="151" cy="488" rx="12" ry="4" fill="#ffba08" opacity="0.15"/>

  <rect x="400" y="450" width="3" height="40" fill="#333"/>
  <circle cx="401" cy="448" r="5" fill="#ffba08" opacity="0.6"/>
  <ellipse cx="401" cy="488" rx="12" ry="4" fill="#ffba08" opacity="0.15"/>

  <rect x="650" y="450" width="3" height="40" fill="#333"/>
  <circle cx="651" cy="448" r="5" fill="#ffba08" opacity="0.6"/>
  <ellipse cx="651" cy="488" rx="12" ry="4" fill="#ffba08" opacity="0.15"/>
</svg>
